# xmcd
#
# Track frame offsets:
#	150
#	19231
#	31874
#	53498
#	74603
#	93959
#	116737
#	149961
#	175711
#	239725
#	295377
#
# Disc length: 4266 seconds
#
# Revision: 1
# Processed by: cddbd v1.5.2PL0 Copyright (c) Steve Scherf et al.
#
# Submitted via: freedbSubmitter v2.1
#
DISCID=a610a80b
DTITLE=Dizzy Gillespie - Milestones of a Legend (1948-1961) CD05
DYEAR=2017
DGENRE=Jazz
TTITLE0=Manteca Theme
TTITLE1=Contraste
TTITLE2=Jungla
TTITLE3=Rhumba-Finale
TTITLE4=A Night in tunisia
TTITLE5=Con Alma
TTITLE6=Caravan
TTITLE7=On the Sunny Side of the street
TTITLE8=The Eternal Triangle
TTITLE9=After Hours
TTITLE10=I Know That You Know
EXTD=YEAR: 1957
EXTT0=
EXTT1=
EXTT2=
EXTT3=
EXTT4=
EXTT5=
EXTT6=
EXTT7=
EXTT8=
EXTT9=
EXTT10=
PLAYORDER=
